<svg xmlns="http://www.w3.org/2000/svg" viewBox="0 0 24 24" fill="#FFFFFF"><path d="M12 0C5.373 0 0 5.373 0 12s5.373 12 12 12 12-5.373 12-12S18.627 0 12 0zm5.562 8.248c-.12.857-.857 1.857-1.857 1.857-1.143 0-3.143-1.143-3.143-3.143 0-2.143 1.857-4.714 3.857-4.714.857 0 1.429.571 1.429 1.429 0 .857-.571 2.286-.571 2.286 0 .286.286.286.571.143.571-.571 1.571-1 2.143-1 .286 0 .571 0 .714-.143.143-.286.143-.571.143-.857-.143-.571-.571-1.429-.857-2.143-.571-1.429-1.143-2.571-2-2.571-.571 0-1.143.286-1.429.714-.571.714-.571 2.143-.286 3.429.143.571.143 1.143.143 1.571 0 .143 0 .286-.143.429-.286.286-.571.571-.857.571-.571 0-1.143-.571-1.429-1.143-.143-.286-.143-.571 0-.857.571-1.143 1.714-1.857 2.857-1.857.571 0 1.143.143 1.571.429zM9.429 9.143c0 .286-.143.571-.429.571-.571 0-1.714-.571-2.571-1.429-1.143-1.143-1.857-2.571-1.857-4.143 0-1.143.571-2 1.429-2.571.571-.429 1.571-.571 2.286-.571.143 0 .286 0 .429.028.143.028.286.057.429.114.143.057.286.143.429.286.143.143.143.286.143.429v.857c0 .143 0 .286-.057.429-.057.143-.143.286-.286.429-.143.143-.286.143-.429.143-.857 0-2.143.857-2.857 2.286-.571 1.143-.571 2.571-.286 3.714.143.571.571 1.143 1.143 1.143.286 0 .571-.143.714-.429.286-.571.714-1.286.714-1.714v-.057zm5.571-3.143c0 .143-.057.286-.143.429-.143.143-.286.286-.429.286-.143 0-.286-.057-.429-.143-.286-.143-.571-.286-.857-.286-.143 0-.286 0-.429.057-.143.057-.286.143-.429.286-.143.143-.143.286-.143.429v4.571c0 .143.057.286.143.429.143.143.286.286.429.286.143 0 .286-.057.429-.143.286-.143.571-.286.857-.286.143 0 .286 0 .429-.057.143-.057.286-.143.429-.286.143-.143.143-.286.143-.429V6.571c0-.143-.057-.286-.143-.429-.143-.143-.286-.286-.429-.286z"/></svg>